<svg width="26" height="23" viewBox="0 0 26 23" fill="none" xmlns="http://www.w3.org/2000/svg">
<path d="M24.6665 8.5001H19.0782L13.9565 0.835098C13.4898 0.146764 12.4748 0.146764 12.0198 0.835098L6.89817 8.5001H1.33317C0.691504 8.5001 0.166504 9.0251 0.166504 9.66677C0.166504 9.77176 0.178171 9.87677 0.213171 9.98177L3.1765 20.7968C3.44484 21.7768 4.34317 22.5001 5.4165 22.5001H20.5832C21.6565 22.5001 22.5548 21.7768 22.8348 20.7968L25.7982 9.98177L25.8332 9.66677C25.8332 9.0251 25.3082 8.5001 24.6665 8.5001ZM12.9882 3.58843L16.2665 8.5001H9.70984L12.9882 3.58843ZM12.9998 17.8334C11.7165 17.8334 10.6665 16.7834 10.6665 15.5001C10.6665 14.2168 11.7165 13.1668 12.9998 13.1668C14.2832 13.1668 15.3332 14.2168 15.3332 15.5001C15.3332 16.7834 14.2832 17.8334 12.9998 17.8334Z" fill="url(#paint0_linear_2392_25)"/>
<defs>
<linearGradient id="paint0_linear_2392_25" x1="12.9998" y1="0.318848" x2="12.9998" y2="22.5001" gradientUnits="userSpaceOnUse">
<stop stop-color="#41D860"/>
<stop offset="1" stop-color="#3ACF58"/>
</linearGradient>
</defs>
</svg>
